<svg xmlns="http://www.w3.org/2000/svg" viewBox="2.23741 0.508 27.51 30.98">
  <path d="M25.874,16c3.122-3.006,4.588-5.934,3.543-7.746C28.5,6.66,25.858,6.265,22.165,7.129A1.9,1.9,0,0,0,20.6,6.217C19.5,2.592,17.838.508,16,.508c-2.088,0-3.894,2.628-4.944,6.939-4.162-1.2-7.427-1-8.473.807S3,12.99,6.119,15.994c-3.211,3.065-4.582,5.94-3.536,7.752.611,1.059,1.979,1.566,3.843,1.566a17.252,17.252,0,0,0,4.635-.769C12.1,28.755,13.907,31.492,16,31.492c1.852,0,3.465-2.007,4.575-5.634a1.9,1.9,0,0,0,1.622-.975,15.246,15.246,0,0,0,3.38.444c1.9,0,3.236-.535,3.84-1.581C30.463,21.934,29,19.006,25.874,16Zm2.677-7.246c.746,1.293-.493,3.808-3.4,6.577a34.033,34.033,0,0,0-3.392-2.653c-.08-.986-.2-1.942-.35-2.872a1.9,1.9,0,0,0,1.039-1.688c0-.01,0-.019,0-.029C25.607,7.357,27.88,7.592,28.551,8.753ZM20.418,22.061A1.9,1.9,0,0,0,19,22.843q-.915-.35-1.841-.766.888-.456,1.785-.974c.6-.347,1.176-.7,1.738-1.066C20.612,20.726,20.525,21.4,20.418,22.061Zm-1.973-1.824c-.831.479-1.643.907-2.439,1.3-.817-.4-1.636-.828-2.452-1.3-.833-.481-1.612-.972-2.351-1.466-.059-.888-.095-1.808-.095-2.77,0-.456.014-.9.029-1.348a1.883,1.883,0,0,0,1.331-2.232c.356-.221.714-.441,1.086-.656.817-.471,1.635-.9,2.452-1.3.8.392,1.608.82,2.439,1.3s1.609.97,2.347,1.463c.061.907.1,1.829.1,2.773s-.04,1.866-.1,2.774C20.053,19.267,19.276,19.757,18.445,20.237Zm-3.591,1.842A32.671,32.671,0,0,1,11.788,23.3a32.6,32.6,0,0,1-.48-3.264c.564.363,1.142.722,1.746,1.071S14.254,21.77,14.854,22.079ZM11.41,11.107c.106-.837.238-1.639.394-2.4a32.631,32.631,0,0,1,3.05,1.211c-.6.309-1.2.631-1.8.977-.362.208-.707.423-1.055.637A1.882,1.882,0,0,0,11.41,11.107Zm-.8.817a.906.906,0,1,1-.906.906A.908.908,0,0,1,10.608,11.924ZM9.547,14.412a1.91,1.91,0,0,0,.589.258c-.014.44-.028.88-.028,1.33,0,.7.023,1.378.055,2.048a32.652,32.652,0,0,1-2.576-2.037C8.188,15.477,8.845,14.942,9.547,14.412Zm10.884-4.4q.151.955.253,1.952c-.563-.361-1.137-.719-1.739-1.066s-1.2-.666-1.792-.972q.907-.408,1.8-.753A1.9,1.9,0,0,0,20.431,10.012Zm1.406,3.941A32.8,32.8,0,0,1,24.424,16c-.766.677-1.634,1.363-2.587,2.048.033-.675.055-1.356.055-2.048S21.87,14.627,21.837,13.953Zm-.388-5.836a.906.906,0,1,1-.906-.906A.907.907,0,0,1,21.449,8.117ZM16,1.508c1.342,0,2.681,1.849,3.627,4.948a1.9,1.9,0,0,0-.99,1.661c0,.036.008.069.01.1-.878.334-1.761.706-2.649,1.129A34.181,34.181,0,0,0,12.02,7.744C12.939,3.982,14.447,1.508,16,1.508ZM3.448,8.754C4.2,7.462,6.991,7.278,10.84,8.408q-.246,1.2-.417,2.534A1.885,1.885,0,0,0,8.9,13.651q-1.111.84-2.051,1.676C3.94,12.56,2.7,10.046,3.448,8.754Zm0,14.492c-.778-1.348.61-3.888,3.41-6.565a34.394,34.394,0,0,0,3.384,2.644,34.015,34.015,0,0,0,.6,4.267C6.993,24.723,4.2,24.539,3.448,23.246ZM16,30.492c-1.493,0-3.051-2.33-4-6.23a34.363,34.363,0,0,0,3.986-1.616c.893.424,1.781.8,2.664,1.135a1.68,1.68,0,0,0-.017.174,1.9,1.9,0,0,0,.971,1.651C18.663,28.666,17.332,30.492,16,30.492Zm4.543-5.631a.906.906,0,1,1,.906-.906A.906.906,0,0,1,20.543,24.861Zm8.009-1.615c-.673,1.162-2.946,1.4-6.107.666A1.9,1.9,0,0,0,21.4,22.261c.157-.951.28-1.93.361-2.937a33.942,33.942,0,0,0,3.393-2.655C28.058,19.439,29.3,21.953,28.552,23.246Z" fill="#3e426a"/>
</svg>